<svg width="1527" height="729" viewBox="0 0 1527 729" fill="none" xmlns="http://www.w3.org/2000/svg">
<path fill-rule="evenodd" clip-rule="evenodd" d="M300.732 45.4284C322.424 41.9639 339 23.1677 339 0.5C339 0.333122 338.999 0.166454 338.997 0H1457C1489.03 0 1515 25.9675 1515 58V75.0066C1514.83 75.0022 1514.67 75 1514.5 75C1504.28 75 1496 83.2827 1496 93.5C1496 103.717 1504.28 112 1514.5 112C1514.67 112 1514.83 111.998 1515 111.993V135.007C1514.94 135.005 1514.88 135.004 1514.83 135.003C1514.77 135.002 1514.72 135.001 1514.67 135.001C1514.61 135 1514.56 135 1514.5 135C1504.28 135 1496 143.283 1496 153.5C1496 163.717 1504.28 172 1514.5 172C1514.67 172 1514.83 171.998 1515 171.993V195.007C1514.83 195.002 1514.67 195 1514.5 195C1504.28 195 1496 203.283 1496 213.5C1496 223.717 1504.28 232 1514.5 232C1514.58 232 1514.65 232 1514.73 231.999C1514.82 231.997 1514.91 231.996 1515 231.993V255.007C1514.83 255.002 1514.67 255 1514.5 255C1504.28 255 1496 263.283 1496 273.5C1496 283.717 1504.28 292 1514.5 292L1514.61 292L1514.67 291.999L1514.78 291.998C1514.85 291.997 1514.93 291.995 1515 291.993V315.007C1514.83 315.002 1514.67 315 1514.5 315C1504.28 315 1496 323.283 1496 333.5C1496 343.717 1504.28 352 1514.5 352C1514.67 352 1514.83 351.998 1515 351.993V375.007C1514.83 375.002 1514.67 375 1514.5 375C1504.28 375 1496 383.283 1496 393.5C1496 403.717 1504.28 412 1514.5 412C1514.58 412 1514.66 411.999 1514.74 411.998C1514.83 411.997 1514.91 411.996 1515 411.993V435.007C1514.95 435.005 1514.89 435.004 1514.84 435.003C1514.72 435.001 1514.61 435 1514.5 435C1504.28 435 1496 443.283 1496 453.5C1496 463.717 1504.28 472 1514.5 472C1514.67 472 1514.83 471.998 1515 471.993V495.007C1514.95 495.005 1514.91 495.004 1514.86 495.003L1514.74 495.002C1514.66 495.001 1514.58 495 1514.5 495C1504.28 495 1496 503.283 1496 513.5C1496 523.717 1504.28 532 1514.5 532C1514.57 532 1514.63 532 1514.7 531.999C1514.8 531.998 1514.9 531.996 1515 531.993V555.007C1514.92 555.005 1514.85 555.003 1514.77 555.002C1514.73 555.001 1514.68 555.001 1514.64 555.001C1514.59 555 1514.55 555 1514.5 555C1504.28 555 1496 563.283 1496 573.5C1496 583.717 1504.28 592 1514.5 592C1514.61 592 1514.71 591.999 1514.82 591.997C1514.88 591.996 1514.94 591.995 1515 591.993V615.007C1514.83 615.002 1514.67 615 1514.5 615C1504.28 615 1496 623.283 1496 633.5C1496 643.717 1504.28 652 1514.5 652C1514.57 652 1514.64 652 1514.71 651.999C1514.81 651.998 1514.9 651.996 1515 651.993V671C1515 703.033 1489.03 729 1457 729H338.997C338.755 706.503 322.186 687.922 300.578 684.547C300.68 684.195 300.734 683.823 300.734 683.438V653.062C300.734 650.853 298.943 649.062 296.734 649.062C294.525 649.062 292.734 650.853 292.734 653.062V683.438C292.734 683.63 292.748 683.82 292.774 684.006C268.146 684.391 248.268 704.343 248.003 729H87C54.9675 729 29 703.033 29 671V651.993C38.9861 651.728 47 643.55 47 633.5C47 623.45 38.9861 615.272 29 615.007V591.993C38.9861 591.728 47 583.55 47 573.5C47 563.45 38.9861 555.272 29 555.007V531.993C38.9861 531.728 47 523.55 47 513.5C47 503.45 38.9861 495.272 29 495.007V471.993C38.9861 471.728 47 463.55 47 453.5C47 443.45 38.9861 435.272 29 435.007V411.993C38.9861 411.728 47 403.55 47 393.5C47 383.45 38.9861 375.272 29 375.007V351.993C38.9861 351.728 47 343.55 47 333.5C47 323.45 38.9861 315.272 29 315.007V291.993C38.9861 291.728 47 283.55 47 273.5C47 263.45 38.9861 255.272 29 255.007V231.993C38.9861 231.728 47 223.55 47 213.5C47 203.45 38.9861 195.272 29 195.007V171.993C38.9861 171.728 47 163.55 47 153.5C47 143.45 38.9861 135.272 29 135.007V111.993C38.9861 111.728 47 103.55 47 93.5C47 83.4499 38.9861 75.2716 29 75.0066V58C29 25.9675 54.9675 0 87 0H248.003C248.001 0.166454 248 0.333122 248 0.5C248 25.3732 267.959 45.5849 292.734 45.9937V75.9375C292.734 78.1466 294.525 79.9375 296.734 79.9375C298.944 79.9375 300.734 78.1466 300.734 75.9375V45.5625C300.734 45.5176 300.734 45.4729 300.732 45.4284ZM300.734 106.312C300.734 104.103 298.944 102.312 296.734 102.312C294.525 102.312 292.734 104.103 292.734 106.312V136.688C292.734 138.897 294.525 140.688 296.734 140.688C298.944 140.688 300.734 138.897 300.734 136.688V106.312ZM300.734 167.062C300.734 164.853 298.944 163.062 296.734 163.062C294.525 163.062 292.734 164.853 292.734 167.062V197.438C292.734 199.647 294.525 201.438 296.734 201.438C298.944 201.438 300.734 199.647 300.734 197.438V167.062ZM300.734 227.812C300.734 225.603 298.944 223.812 296.734 223.812C294.525 223.812 292.734 225.603 292.734 227.812V258.188C292.734 260.397 294.525 262.188 296.734 262.188C298.944 262.188 300.734 260.397 300.734 258.188V227.812ZM300.734 288.562C300.734 286.353 298.944 284.562 296.734 284.562C294.525 284.562 292.734 286.353 292.734 288.562V318.938C292.734 321.147 294.525 322.938 296.734 322.938C298.944 322.938 300.734 321.147 300.734 318.938V288.562ZM300.734 349.312C300.734 347.103 298.944 345.312 296.734 345.312C294.525 345.312 292.734 347.103 292.734 349.312L292.734 379.688C292.734 381.897 294.525 383.688 296.734 383.688C298.944 383.688 300.734 381.897 300.734 379.688L300.734 349.312ZM300.734 410.062C300.734 407.853 298.944 406.062 296.734 406.062C294.525 406.062 292.734 407.853 292.734 410.062V440.438C292.734 442.647 294.525 444.438 296.734 444.438C298.943 444.438 300.734 442.647 300.734 440.438V410.062ZM300.734 470.812C300.734 468.603 298.943 466.812 296.734 466.812C294.525 466.812 292.734 468.603 292.734 470.812V501.188C292.734 503.397 294.525 505.188 296.734 505.188C298.943 505.188 300.734 503.397 300.734 501.188V470.812ZM300.734 531.562C300.734 529.353 298.943 527.562 296.734 527.562C294.525 527.562 292.734 529.353 292.734 531.562V561.938C292.734 564.147 294.525 565.938 296.734 565.938C298.943 565.938 300.734 564.147 300.734 561.938V531.562ZM300.734 592.312C300.734 590.103 298.943 588.312 296.734 588.312C294.525 588.312 292.734 590.103 292.734 592.312V622.688C292.734 624.897 294.525 626.688 296.734 626.688C298.943 626.688 300.734 624.897 300.734 622.688V592.312Z" fill="#F1F6F9"/>
<mask id="mask0_52_5" style="mask-type:alpha" maskUnits="userSpaceOnUse" x="29" y="0" width="1486" height="729">
<path fill-rule="evenodd" clip-rule="evenodd" d="M339 0.5C339 25.629 318.629 46 293.5 46C268.371 46 248 25.629 248 0.5C248 0.333122 248.001 0.166454 248.003 0H87C54.9675 0 29 25.9675 29 58V75.0066C38.9861 75.2716 47 83.4499 47 93.5C47 103.55 38.9861 111.728 29 111.993V135.007C38.9861 135.272 47 143.45 47 153.5C47 163.55 38.9861 171.728 29 171.993V195.007C38.9861 195.272 47 203.45 47 213.5C47 223.55 38.9861 231.728 29 231.993V255.007C38.9861 255.272 47 263.45 47 273.5C47 283.55 38.9861 291.728 29 291.993V315.007C38.9861 315.272 47 323.45 47 333.5C47 343.55 38.9861 351.728 29 351.993V375.007C38.9861 375.272 47 383.45 47 393.5C47 403.55 38.9861 411.728 29 411.993V435.007C38.9861 435.272 47 443.45 47 453.5C47 463.55 38.9861 471.728 29 471.993V495.007C38.9861 495.272 47 503.45 47 513.5C47 523.55 38.9861 531.728 29 531.993V555.007C38.9861 555.272 47 563.45 47 573.5C47 583.55 38.9861 591.728 29 591.993V615.007C38.9861 615.272 47 623.45 47 633.5C47 643.55 38.9861 651.728 29 651.993V671C29 703.033 54.9675 729 87 729H248.003C248.271 704.101 268.538 684 293.5 684C318.462 684 338.729 704.101 338.997 729H1457C1489.03 729 1515 703.033 1515 671V651.993C1514.83 651.998 1514.67 652 1514.5 652C1504.28 652 1496 643.717 1496 633.5C1496 623.283 1504.28 615 1514.5 615C1514.67 615 1514.83 615.002 1515 615.007V591.993C1514.94 591.995 1514.88 591.996 1514.82 591.997C1514.71 591.999 1514.61 592 1514.5 592C1504.28 592 1496 583.717 1496 573.5C1496 563.283 1504.28 555 1514.5 555C1514.55 555 1514.59 555 1514.64 555.001C1514.68 555.001 1514.73 555.001 1514.77 555.002C1514.85 555.003 1514.92 555.005 1515 555.007V531.993C1514.9 531.996 1514.8 531.998 1514.7 531.999C1514.63 532 1514.57 532 1514.5 532C1504.28 532 1496 523.717 1496 513.5C1496 503.283 1504.28 495 1514.5 495C1514.58 495 1514.66 495.001 1514.74 495.002C1514.83 495.003 1514.91 495.004 1515 495.007V471.993C1514.83 471.998 1514.67 472 1514.5 472C1504.28 472 1496 463.717 1496 453.5C1496 443.283 1504.28 435 1514.5 435C1514.61 435 1514.72 435.001 1514.84 435.003C1514.89 435.004 1514.95 435.005 1515 435.007V411.993C1514.91 411.996 1514.83 411.997 1514.74 411.998C1514.66 411.999 1514.58 412 1514.5 412C1504.28 412 1496 403.717 1496 393.5C1496 383.283 1504.28 375 1514.5 375C1514.67 375 1514.83 375.002 1515 375.007V351.993C1514.83 351.998 1514.67 352 1514.5 352C1504.28 352 1496 343.717 1496 333.5C1496 323.283 1504.28 315 1514.5 315C1514.67 315 1514.83 315.002 1515 315.007V291.993C1514.93 291.995 1514.85 291.997 1514.78 291.998L1514.67 291.999C1514.61 292 1514.56 292 1514.5 292C1504.28 292 1496 283.717 1496 273.5C1496 263.283 1504.28 255 1514.5 255C1514.67 255 1514.83 255.002 1515 255.007V231.993C1514.91 231.996 1514.82 231.997 1514.73 231.999C1514.65 232 1514.58 232 1514.5 232C1504.28 232 1496 223.717 1496 213.5C1496 203.283 1504.28 195 1514.5 195C1514.67 195 1514.83 195.002 1515 195.007V171.993C1514.83 171.998 1514.67 172 1514.5 172C1504.28 172 1496 163.717 1496 153.5C1496 143.283 1504.28 135 1514.5 135C1514.56 135 1514.61 135 1514.67 135.001C1514.72 135.001 1514.77 135.002 1514.83 135.003C1514.88 135.004 1514.94 135.005 1515 135.007V111.993C1514.83 111.998 1514.67 112 1514.5 112C1504.28 112 1496 103.717 1496 93.5C1496 83.2827 1504.28 75 1514.5 75C1514.67 75 1514.83 75.0022 1515 75.0066V58C1515 25.9675 1489.03 0 1457 0H338.997C338.999 0.166454 339 0.333122 339 0.5Z" fill="white"/>
</mask>
<g mask="url(#mask0_52_5)">
<rect x="29" width="1498" height="46" fill="#FD3E81"/>
<rect x="23" y="683" width="1498" height="46" fill="#FD3E81"/>
</g>
</svg>
