<svg width="1527" height="729" viewBox="0 0 1527 729" xmlns="http://www.w3.org/2000/svg">
<path fill-rule="evenodd" clip-rule="evenodd" d="M271.732 45.4284C293.424 41.9639 310 23.1677 310 0.5C310 0.333122 309.999 0.166454 309.997 0H1428C1460.03 0 1486 25.9675 1486 58V75.0066C1485.83 75.0022 1485.67 75 1485.5 75C1475.28 75 1467 83.2827 1467 93.5C1467 103.717 1475.28 112 1485.5 112C1485.67 112 1485.83 111.998 1486 111.993V135.007C1485.94 135.005 1485.88 135.004 1485.83 135.003C1485.77 135.002 1485.72 135.001 1485.67 135.001C1485.61 135 1485.56 135 1485.5 135C1475.28 135 1467 143.283 1467 153.5C1467 163.717 1475.28 172 1485.5 172C1485.67 172 1485.83 171.998 1486 171.993V195.007C1485.83 195.002 1485.67 195 1485.5 195C1475.28 195 1467 203.283 1467 213.5C1467 223.717 1475.28 232 1485.5 232C1485.58 232 1485.65 232 1485.73 231.999C1485.82 231.997 1485.91 231.996 1486 231.993V255.007C1485.83 255.002 1485.67 255 1485.5 255C1475.28 255 1467 263.283 1467 273.5C1467 283.717 1475.28 292 1485.5 292L1485.61 292L1485.67 291.999L1485.78 291.998C1485.85 291.997 1485.93 291.995 1486 291.993V315.007C1485.83 315.002 1485.67 315 1485.5 315C1475.28 315 1467 323.283 1467 333.5C1467 343.717 1475.28 352 1485.5 352C1485.67 352 1485.83 351.998 1486 351.993V375.007C1485.83 375.002 1485.67 375 1485.5 375C1475.28 375 1467 383.283 1467 393.5C1467 403.717 1475.28 412 1485.5 412C1485.58 412 1485.66 411.999 1485.74 411.998C1485.83 411.997 1485.91 411.996 1486 411.993V435.007C1485.95 435.005 1485.89 435.004 1485.84 435.003C1485.72 435.001 1485.61 435 1485.5 435C1475.28 435 1467 443.283 1467 453.5C1467 463.717 1475.28 472 1485.5 472C1485.67 472 1485.83 471.998 1486 471.993V495.007C1485.95 495.005 1485.91 495.004 1485.86 495.003L1485.74 495.002C1485.66 495.001 1485.58 495 1485.5 495C1475.28 495 1467 503.283 1467 513.5C1467 523.717 1475.28 532 1485.5 532C1485.57 532 1485.63 532 1485.7 531.999C1485.8 531.998 1485.9 531.996 1486 531.993V555.007C1485.92 555.005 1485.85 555.003 1485.77 555.002C1485.73 555.001 1485.68 555.001 1485.64 555.001C1485.59 555 1485.55 555 1485.5 555C1475.28 555 1467 563.283 1467 573.5C1467 583.717 1475.28 592 1485.5 592C1485.61 592 1485.71 591.999 1485.82 591.997C1485.88 591.996 1485.94 591.995 1486 591.993V615.007C1485.83 615.002 1485.67 615 1485.5 615C1475.28 615 1467 623.283 1467 633.5C1467 643.717 1475.28 652 1485.5 652C1485.57 652 1485.64 652 1485.71 651.999C1485.81 651.998 1485.9 651.996 1486 651.993V671C1486 703.033 1460.03 729 1428 729H309.997C309.755 706.503 293.186 687.922 271.578 684.547C271.68 684.195 271.734 683.823 271.734 683.438V653.062C271.734 650.853 269.943 649.062 267.734 649.062C265.525 649.062 263.734 650.853 263.734 653.062V683.438C263.734 683.63 263.748 683.82 263.774 684.006C239.146 684.391 219.268 704.343 219.003 729H58C25.9675 729 0 703.033 0 671V651.993C9.98612 651.728 18 643.55 18 633.5C18 623.45 9.98612 615.272 0 615.007V591.993C9.98612 591.728 18 583.55 18 573.5C18 563.45 9.98612 555.272 0 555.007V531.993C9.98612 531.728 18 523.55 18 513.5C18 503.45 9.98612 495.272 0 495.007V471.993C9.98612 471.728 18 463.55 18 453.5C18 443.45 9.98612 435.272 0 435.007V411.993C9.98612 411.728 18 403.55 18 393.5C18 383.45 9.98612 375.272 0 375.007V351.993C9.98612 351.728 18 343.55 18 333.5C18 323.45 9.98612 315.272 0 315.007V291.993C9.98612 291.728 18 283.55 18 273.5C18 263.45 9.98612 255.272 0 255.007V231.993C9.98612 231.728 18 223.55 18 213.5C18 203.45 9.98612 195.272 0 195.007V171.993C9.98612 171.728 18 163.55 18 153.5C18 143.45 9.98612 135.272 0 135.007V111.993C9.98612 111.728 18 103.55 18 93.5C18 83.4499 9.98612 75.2716 0 75.0066V58C0 25.9675 25.9675 0 58 0H219.003C219.001 0.166454 219 0.333122 219 0.5C219 25.3732 238.959 45.5849 263.734 45.9937V75.9375C263.734 78.1466 265.525 79.9375 267.734 79.9375C269.944 79.9375 271.734 78.1466 271.734 75.9375V45.5625C271.734 45.5176 271.734 45.4729 271.732 45.4284ZM271.734 106.312C271.734 104.103 269.944 102.312 267.734 102.312C265.525 102.312 263.734 104.103 263.734 106.312V136.688C263.734 138.897 265.525 140.688 267.734 140.688C269.944 140.688 271.734 138.897 271.734 136.688V106.312ZM271.734 167.062C271.734 164.853 269.944 163.062 267.734 163.062C265.525 163.062 263.734 164.853 263.734 167.062V197.438C263.734 199.647 265.525 201.438 267.734 201.438C269.944 201.438 271.734 199.647 271.734 197.438V167.062ZM271.734 227.812C271.734 225.603 269.944 223.812 267.734 223.812C265.525 223.812 263.734 225.603 263.734 227.812V258.188C263.734 260.397 265.525 262.188 267.734 262.188C269.944 262.188 271.734 260.397 271.734 258.188V227.812ZM271.734 288.562C271.734 286.353 269.944 284.562 267.734 284.562C265.525 284.562 263.734 286.353 263.734 288.562V318.938C263.734 321.147 265.525 322.938 267.734 322.938C269.944 322.938 271.734 321.147 271.734 318.938V288.562ZM271.734 349.312C271.734 347.103 269.944 345.312 267.734 345.312C265.525 345.312 263.734 347.103 263.734 349.312L263.734 379.688C263.734 381.897 265.525 383.688 267.734 383.688C269.944 383.688 271.734 381.897 271.734 379.688L271.734 349.312ZM271.734 410.062C271.734 407.853 269.944 406.062 267.734 406.062C265.525 406.062 263.734 407.853 263.734 410.062V440.438C263.734 442.647 265.525 444.438 267.734 444.438C269.943 444.438 271.734 442.647 271.734 440.438V410.062ZM271.734 470.812C271.734 468.603 269.943 466.812 267.734 466.812C265.525 466.812 263.734 468.603 263.734 470.812V501.188C263.734 503.397 265.525 505.188 267.734 505.188C269.943 505.188 271.734 503.397 271.734 501.188V470.812ZM271.734 531.562C271.734 529.353 269.943 527.562 267.734 527.562C265.525 527.562 263.734 529.353 263.734 531.562V561.938C263.734 564.147 265.525 565.938 267.734 565.938C269.943 565.938 271.734 564.147 271.734 561.938V531.562ZM271.734 592.312C271.734 590.103 269.943 588.312 267.734 588.312C265.525 588.312 263.734 590.103 263.734 592.312V622.688C263.734 624.897 265.525 626.688 267.734 626.688C269.943 626.688 271.734 624.897 271.734 622.688V592.312Z" fill="white"/>
<mask id="mask0_14_976" style="mask-type:alpha" maskUnits="userSpaceOnUse" x="0" y="0" width="1486" height="729">
<path fill-rule="evenodd" clip-rule="evenodd" d="M310 0.5C310 25.629 289.629 46 264.5 46C239.371 46 219 25.629 219 0.5C219 0.333122 219.001 0.166454 219.003 0H58C25.9675 0 0 25.9675 0 58V75.0066C9.98612 75.2716 18 83.4499 18 93.5C18 103.55 9.98612 111.728 0 111.993V135.007C9.98612 135.272 18 143.45 18 153.5C18 163.55 9.98612 171.728 0 171.993V195.007C9.98612 195.272 18 203.45 18 213.5C18 223.55 9.98612 231.728 0 231.993V255.007C9.98612 255.272 18 263.45 18 273.5C18 283.55 9.98612 291.728 0 291.993V315.007C9.98612 315.272 18 323.45 18 333.5C18 343.55 9.98612 351.728 0 351.993V375.007C9.98612 375.272 18 383.45 18 393.5C18 403.55 9.98612 411.728 0 411.993V435.007C9.98612 435.272 18 443.45 18 453.5C18 463.55 9.98612 471.728 0 471.993V495.007C9.98612 495.272 18 503.45 18 513.5C18 523.55 9.98612 531.728 0 531.993V555.007C9.98612 555.272 18 563.45 18 573.5C18 583.55 9.98612 591.728 0 591.993V615.007C9.98612 615.272 18 623.45 18 633.5C18 643.55 9.98612 651.728 0 651.993V671C0 703.033 25.9675 729 58 729H219.003C219.271 704.101 239.538 684 264.5 684C289.462 684 309.729 704.101 309.997 729H1428C1460.03 729 1486 703.033 1486 671V651.993C1485.83 651.998 1485.67 652 1485.5 652C1475.28 652 1467 643.717 1467 633.5C1467 623.283 1475.28 615 1485.5 615C1485.67 615 1485.83 615.002 1486 615.007V591.993C1485.94 591.995 1485.88 591.996 1485.82 591.997C1485.71 591.999 1485.61 592 1485.5 592C1475.28 592 1467 583.717 1467 573.5C1467 563.283 1475.28 555 1485.5 555C1485.55 555 1485.59 555 1485.64 555.001C1485.68 555.001 1485.73 555.001 1485.77 555.002C1485.85 555.003 1485.92 555.005 1486 555.007V531.993C1485.9 531.996 1485.8 531.998 1485.7 531.999C1485.63 532 1485.57 532 1485.5 532C1475.28 532 1467 523.717 1467 513.5C1467 503.283 1475.28 495 1485.5 495C1485.58 495 1485.66 495.001 1485.74 495.002C1485.83 495.003 1485.91 495.004 1486 495.007V471.993C1485.83 471.998 1485.67 472 1485.5 472C1475.28 472 1467 463.717 1467 453.5C1467 443.283 1475.28 435 1485.5 435C1485.61 435 1485.72 435.001 1485.84 435.003C1485.89 435.004 1485.95 435.005 1486 435.007V411.993C1485.91 411.996 1485.83 411.997 1485.74 411.998C1485.66 411.999 1485.58 412 1485.5 412C1475.28 412 1467 403.717 1467 393.5C1467 383.283 1475.28 375 1485.5 375C1485.67 375 1485.83 375.002 1486 375.007V351.993C1485.83 351.998 1485.67 352 1485.5 352C1475.28 352 1467 343.717 1467 333.5C1467 323.283 1475.28 315 1485.5 315C1485.67 315 1485.83 315.002 1486 315.007V291.993C1485.93 291.995 1485.85 291.997 1485.78 291.998L1485.67 291.999C1485.61 292 1485.56 292 1485.5 292C1475.28 292 1467 283.717 1467 273.5C1467 263.283 1475.28 255 1485.5 255C1485.67 255 1485.83 255.002 1486 255.007V231.993C1485.91 231.996 1485.82 231.997 1485.73 231.999C1485.65 232 1485.58 232 1485.5 232C1475.28 232 1467 223.717 1467 213.5C1467 203.283 1475.28 195 1485.5 195C1485.67 195 1485.83 195.002 1486 195.007V171.993C1485.83 171.998 1485.67 172 1485.5 172C1475.28 172 1467 163.717 1467 153.5C1467 143.283 1475.28 135 1485.5 135C1485.56 135 1485.61 135 1485.67 135.001C1485.72 135.001 1485.77 135.002 1485.83 135.003C1485.88 135.004 1485.94 135.005 1486 135.007V111.993C1485.83 111.998 1485.67 112 1485.5 112C1475.28 112 1467 103.717 1467 93.5C1467 83.2827 1475.28 75 1485.5 75C1485.67 75 1485.83 75.0022 1486 75.0066V58C1486 25.9675 1460.03 0 1428 0H309.997C309.999 0.166454 310 0.333122 310 0.5Z" fill="white"/>
</mask>
<g mask="url(#mask0_14_976)">
</g>
</svg>
